HIERARCHY
ROOT root
{
	OFFSET	0	13.1	24.9
	CHANNELS 6  Xposition Yposition Zposition Xrotation Yrotation Zrotation
	JOINT spine_1
	{
		OFFSET	0	9.99999	0
		CHANNELS 3  Xrotation Yrotation Zrotation
		JOINT spine_2
		{
			OFFSET	0	112	-10
			CHANNELS 3  Xrotation Yrotation Zrotation
			JOINT spine_3
			{
				OFFSET	0	206.5	19.3
				CHANNELS 3  Xrotation Yrotation Zrotation
				JOINT spine_4
				{
					OFFSET	0	110.4	14.6
					CHANNELS 3  Xrotation Yrotation Zrotation
					JOINT neck_1
					{
						OFFSET	0	71.8	-50.3
						CHANNELS 3  Xrotation Yrotation Zrotation
						JOINT neck_2
						{
							OFFSET	0	86.2	-25.8
							CHANNELS 3  Xrotation Yrotation Zrotation
							JOINT head_ee
							{
								OFFSET	0	179.8	-8.7
								CHANNELS 3  Xrotation Yrotation Zrotation
								End Site
								{
									OFFSET	1	0	0
								}
							}
						}
					}
					JOINT left_clavicle
					{
						OFFSET	-43.2	22.4	-70.8
						CHANNELS 3  Xrotation Yrotation Zrotation
						JOINT left_shoulder
						{
							OFFSET	-93.9	-5.79999	48.7
							CHANNELS 3  Xrotation Yrotation Zrotation
							JOINT left_elbow
							{
								OFFSET	-291.4	-30.8	15.2
								CHANNELS 3  Xrotation Yrotation Zrotation
								JOINT left_lowarm_twist
								{
									OFFSET	-110.7	-3.89999	13.6
									CHANNELS 3  Xrotation Yrotation Zrotation
									JOINT left_hand
									{
										OFFSET	-110.7	-3.89999	13.6
										CHANNELS 3  Xrotation Yrotation Zrotation
										JOINT left_ee
										{
											OFFSET	-80.8	-5.10001	12.1
											CHANNELS 3  Xrotation Yrotation Zrotation
											End Site
											{
												OFFSET	1	0	0
											}
										}
									}
								}
							}
						}
					}
					JOINT right_clavicle
					{
						OFFSET	43.2	22.4	-70.8
						CHANNELS 3  Xrotation Yrotation Zrotation
						JOINT right_shoulder
						{
							OFFSET	93.9	-5.79999	48.7
							CHANNELS 3  Xrotation Yrotation Zrotation
							JOINT right_elbow
							{
								OFFSET	291.4	-30.8	15.2
								CHANNELS 3  Xrotation Yrotation Zrotation
								JOINT right_lowarm_twist
								{
									OFFSET	110.7	-3.89999	13.6
									CHANNELS 3  Xrotation Yrotation Zrotation
									JOINT right_hand
									{
										OFFSET	110.7	-3.89999	13.6
										CHANNELS 3  Xrotation Yrotation Zrotation
										JOINT right_ee
										{
											OFFSET	80.8	-5.10001	12.1
											CHANNELS 3  Xrotation Yrotation Zrotation
											End Site
											{
												OFFSET	1	0	0
											}
										}
									}
								}
							}
						}
					}
				}
			}
		}
	}
	JOINT left_hip
	{
		OFFSET	-82.8	-127.5	0.300001
		CHANNELS 3  Xrotation Yrotation Zrotation
		JOINT left_knee
		{
			OFFSET	-28.2	-396.7	2.2
			CHANNELS 3  Xrotation Yrotation Zrotation
			JOINT left_ankle
			{
				OFFSET	-11.7	-411.3	35.4
				CHANNELS 3  Xrotation Yrotation Zrotation
				JOINT left_toes
				{
					OFFSET	0	-60	-88.6
					CHANNELS 3  Xrotation Yrotation Zrotation
					JOINT left_foot_ee
					{
						OFFSET	-22.5	-16.5	-42.2
						CHANNELS 3  Xrotation Yrotation Zrotation
						End Site
						{
							OFFSET	1	0	0
						}
					}
				}
			}
		}
	}
	JOINT right_hip
	{
		OFFSET	82.8	-127.5	0.300001
		CHANNELS 3  Xrotation Yrotation Zrotation
		JOINT right_knee
		{
			OFFSET	28.2	-396.7	2.2
			CHANNELS 3  Xrotation Yrotation Zrotation
			JOINT right_ankle
			{
				OFFSET	11.7	-411.3	35.4
				CHANNELS 3  Xrotation Yrotation Zrotation
				JOINT right_toes
				{
					OFFSET	0	-60	-88.6
					CHANNELS 3  Xrotation Yrotation Zrotation
					JOINT right_foot_ee
					{
						OFFSET	22.5	-16.5	-42.2
						CHANNELS 3  Xrotation Yrotation Zrotation
						End Site
						{
							OFFSET	1	0	0
						}
					}
				}
			}
		}
	}
}
MOTION
Frames: 12
Frame Time: 0.02
723.374 637.963 -517.244 178.266 -61.5486 164.064 -1.31994 1.56471 7.70882 -1.28756 1.07253 7.79206 -1.11137 -0.742342 7.83019 -1.19646 0.499684 7.84929 -16.1825 5.8338 10.1689 -15.9159 5.34634 11.5687 -0.0 0.0 -0.0 -10.3584 23.4451 -11.8619 -9.65811 -42.1959 80.9216 0.318314 -8.96101 0.024943 -31.74 -2.11857 3.40656 -0.608134 14.7562 2.26005 -0.0 0.0 -0.0 13.7405 25.7038 -27.4322 18.1994 44.1596 -63.7475 1.88936 43.1002 -0.746206 32.3741 0.0131057 4.08104 -0.420278 28.3749 14.7284 0.0 0.0 0.0 31.1408 35.6175 -3.01904 -7.5849 0.237178 1.13905 2.82102 20.7262 -0.419746 -23.6406 0.0 0.0 -0.0 0.0 -0.0 -12.8089 25.4757 18.0883 -42.5962 0.640144 -6.35785 40.8637 2.58239 4.97321 2.09901 -0.0 -0.0 0.0 0.0 0.0 
751.95 634.269 -520.517 176.938 -60.9554 162.781 -1.60185 1.54562 7.93314 -1.56749 1.03935 8.01468 -1.38757 -0.865375 8.0352 -1.47729 0.410231 8.07101 -15.9753 6.22038 11.6308 -15.6169 5.19775 13.0548 -0.0 0.0 -0.0 -10.4198 23.657 -11.8603 -9.99109 -41.655 80.5001 0.354456 -9.95907 0.0308834 -31.1481 -2.06266 3.35521 -0.819543 15.7155 1.35981 -0.0 0.0 -0.0 13.123 25.7802 -25.9874 17.0939 43.9247 -64.1766 2.25839 48.2011 -1.01036 33.5471 0.056834 4.22445 -0.649501 28.0746 16.1162 0.0 0.0 0.0 31.2058 35.8611 -3.84026 -13.876 0.318316 2.10047 7.48587 17.2114 -1.08683 -20.8974 0.0 0.0 -0.0 0.0 -0.0 -14.1814 24.6825 18.0749 -43.4322 0.699437 -6.47195 40.2704 2.65746 4.92387 -0.506402 0.0 0.0 0.0 0.0 0.0 
772.392 635.966 -526.344 177.267 -60.7538 163.157 -1.81889 1.48898 7.84065 -1.78527 0.988647 7.91883 -1.61301 -0.923935 7.92659 -1.7004 0.335408 7.97291 -13.4885 6.28516 9.71596 -13.2463 5.94803 11.1406 -0.0 0.0 -0.0 -10.1663 23.8907 -11.3831 -8.11303 -41.7478 80.5909 0.373028 -10.4696 0.0341768 -29.98 -1.95391 3.25219 -0.742778 16.0326 1.96726 -0.0 0.0 -0.0 13.3589 25.9739 -26.5114 15.5864 42.2358 -63.6983 2.33177 49.1091 -1.06545 32.3518 0.0123025 4.0783 -0.598828 26.9117 15.3258 0.0 0.0 0.0 31.5853 36.1423 -3.9125 -21.107 0.280838 3.20858 8.94362 17.148 -1.29241 -16.2401 0.0 0.0 -0.0 0.0 -0.0 -17.2075 24.8005 19.5816 -40.2701 0.484043 -6.03605 41.3545 -5.28441 4.97318 -1.86131 0.0 0.0 0.0 0.0 0.0 
792.797 632.34 -528.387 177.006 -60.9391 163.228 -2.05271 1.46142 7.83491 -2.01911 0.9615 7.91136 -1.84872 -0.981515 7.90891 -1.93577 0.275771 7.96446 -11.1248 7.08052 9.76744 -10.8809 6.94744 11.2975 -0.0 0.0 -0.0 -10.2319 23.9898 -11.4368 -7.29694 -41.3762 80.0878 0.430536 -12.0396 0.0454018 -29.6528 -1.92384 3.22294 -0.728238 16.2309 2.14059 -0.0 0.0 -0.0 13.0191 25.4936 -25.7799 14.4876 41.3015 -63.727 2.55827 51.7151 -1.24004 32.1208 0.00405158 4.04996 -0.46322 25.786 13.9799 0.0 0.0 0.0 34.8431 35.8334 -6.15473 -26.2632 0.168961 3.99165 6.44407 17.1043 -0.938194 -14.5835 0.0 0.0 -0.0 0.0 -0.0 -20.1389 24.018 20.441 -36.7302 0.271958 -5.53509 42.264 -10.8638 5.07738 -3.19432 0.0 0.0 0.0 0.0 0.0 
815.801 629.955 -531.624 177.807 -61.1094 164.352 -2.06752 1.41593 7.80602 -2.03413 0.917925 7.87967 -1.8706 -1.01949 7.86725 -1.95677 0.231742 7.92925 -10.6772 7.62011 8.74553 -10.495 8.56079 10.429 -0.0 0.0 -0.0 -10.305 24.3672 -11.3792 -6.64457 -41.2315 79.9353 0.475275 -13.2485 0.0551953 -29.1664 -1.87944 3.17915 -1.20508 17.452 -0.23897 -0.0 0.0 -0.0 13.1104 26.617 -25.8579 13.2005 40.164 -62.9396 2.53291 51.4374 -1.22018 31.9705 -0.00125846 4.0315 -0.427028 23.096 12.6491 0.0 0.0 0.0 37.1977 35.4146 -8.78075 -32.5462 -0.0618521 4.92779 10.5158 14.566 -1.50233 -13.6924 0.0 0.0 -0.0 0.0 -0.0 -20.5997 21.5602 20.796 -35.1657 0.188196 -5.30978 42.1258 -14.2959 5.10771 -1.65083 0.0 0.0 0.0 0.0 0.0 
841.893 626.997 -537.331 177.616 -61.1174 164.932 -2.03428 1.46147 7.55343 -2.00311 0.979301 7.63049 -1.83757 -0.894117 7.64088 -1.91879 0.320156 7.68609 -10.397 8.30651 7.03313 -10.306 10.9572 8.93362 -0.0 0.0 -0.0 -10.0519 24.3849 -11.0029 -7.06162 -40.8793 78.7495 0.500567 -13.9267 0.0611373 -29.0188 -1.86603 3.16579 -1.21703 15.9173 -0.997036 -0.0 0.0 -0.0 13.2998 27.062 -26.2402 12.0782 39.4324 -62.6139 2.46457 50.6717 -1.16702 29.5215 -0.0808974 3.72885 -0.38924 22.0818 11.9802 0.0 0.0 0.0 38.9289 35.1789 -9.97418 -37.3806 -0.308591 5.62808 12.7286 17.019 -1.81543 -10.114 0.0 0.0 -0.0 0.0 -0.0 -22.7596 22.832 20.0272 -34.3763 0.148279 -5.19526 42.2016 -19.0887 5.20516 -1.656 0.0 0.0 0.0 0.0 0.0 
860.51 624.044 -536.495 178.132 -62.7997 166.494 -1.97176 1.42062 7.3885 -1.94192 0.948934 7.46335 -1.78525 -0.876298 7.47218 -1.86292 0.311345 7.51669 -10.1966 6.92067 8.0239 -10.0401 7.6345 9.52966 -0.0 0.0 -0.0 -9.78448 23.9081 -10.8154 -6.73669 -40.8525 76.7995 0.54601 -15.1352 0.0725396 -28.6287 -1.83078 3.1303 -1.01598 15.59 0.0953956 -0.0 0.0 -0.0 13.8795 26.7711 -27.6242 11.2603 39.1774 -62.7865 2.19528 47.3934 -0.963605 30.2492 -0.0585867 3.81913 -0.38233 20.6992 11.3626 0.0 0.0 0.0 40.2713 34.9027 -11.0484 -41.6311 -0.573787 6.2251 13.4464 13.6488 -1.89777 -10.0607 0.0 0.0 -0.0 0.0 -0.0 -21.1745 21.6945 17.8143 -33.419 0.102 -5.05568 42.6948 -24.667 5.40762 -1.60129 0.0 0.0 0.0 0.0 0.0 
891.267 623.764 -543.005 175.848 -63.7725 164.812 -2.2166 1.24074 7.22195 -2.18795 0.779922 7.28579 -2.05593 -1.0331 7.25439 -2.12926 0.122372 7.32618 -10.6458 6.74123 6.74644 -10.5474 8.23066 8.27439 -0.0 0.0 -0.0 -9.41666 23.7191 -10.3558 -6.03984 -41.5452 76.6379 0.540822 -14.9979 0.0711911 -28.3267 -1.80366 3.10267 -1.10542 16.3601 -0.115485 -0.0 0.0 -0.0 13.6645 26.7058 -27.1316 9.99232 37.8028 -62.5266 2.0356 45.2337 -0.848114 30.5364 -0.049464 3.85468 -0.417911 18.8887 10.8495 0.0 0.0 0.0 38.7096 32.7599 -9.09249 -44.6489 -0.788698 6.63646 16.8692 16.534 -2.36532 -12.0516 0.0 0.0 -0.0 0.0 -0.0 -20.2858 22.1771 17.4464 -40.0649 0.4709 -6.00736 41.1219 -26.6246 5.33151 -2.37646 0.0 0.0 0.0 0.0 0.0 
908.322 623.301 -549.378 173.819 -65.3712 163.189 -2.30885 1.0622 7.08608 -2.28115 0.610317 7.13894 -2.17357 -1.17705 7.068 -2.2432 -0.0490057 7.16468 -11.6872 6.21168 5.10936 -11.6506 8.45297 6.62601 -0.0 0.0 -0.0 -9.22006 23.8435 -10.0196 -2.57636 -41.7034 76.1232 0.496789 -13.8256 0.0602313 -29.2325 -1.88545 3.18512 -1.03662 15.0001 -0.290828 -0.0 0.0 -0.0 13.1746 26.3834 -26.035 8.86552 37.4863 -62.3229 1.89247 43.1472 -0.74833 30.4935 -0.0508387 3.84937 -0.373097 17.596 10.0054 0.0 0.0 0.0 37.0022 29.0864 -6.66802 -47.1452 -0.982726 6.96797 19.7538 16.1497 -2.73372 -12.1168 0.0 0.0 -0.0 0.0 -0.0 -16.0836 22.2739 17.6399 -51.7986 1.3824 -7.56247 41.4159 -26.4672 5.35355 0.916934 -0.0 -0.0 0.0 0.0 0.0 
931.322 625.406 -558.847 171.175 -66.6848 160.792 -2.43264 0.931265 6.97408 -2.40575 0.486717 7.01891 -2.3153 -1.28493 6.91793 -2.38196 -0.179064 7.03341 -11.9678 5.65053 3.49181 -11.972 8.46555 4.9393 -0.0 0.0 -0.0 -8.37649 23.7193 -8.84937 0.188855 -41.8113 75.2105 0.470301 -13.1147 0.0540611 -29.8137 -1.93861 3.23735 -0.935599 14.6863 0.198025 -0.0 0.0 -0.0 13.1161 26.5916 -25.8744 6.3166 36.8336 -61.7102 1.64818 39.2271 -0.587365 30.1672 -0.061157 3.80897 -0.361321 15.7677 9.15564 0.0 0.0 0.0 34.027 25.9567 -3.9018 -49.6466 -1.19153 7.29151 24.4946 16.4054 -3.31917 -11.5824 0.0 0.0 -0.0 0.0 -0.0 -11.7125 22.7014 16.9839 -62.9833 2.53059 -8.84569 40.8186 -26.3631 5.29308 4.06185 -0.0 -0.0 0.0 0.0 0.0 
958.674 635.668 -570.222 169.501 -68.3744 159.843 -2.51366 0.891436 6.53364 -2.49006 0.474797 6.57687 -2.40787 -1.1957 6.48507 -2.46646 -0.158817 6.59201 -13.1661 5.05996 2.53907 -13.1904 8.0452 3.94195 -0.0 0.0 -0.0 -7.80882 24.4483 -7.78089 2.80913 -41.8837 74.8507 0.49757 -13.8465 0.060418 -31.0857 -2.05679 3.34975 -0.956401 15.4763 0.413113 -0.0 0.0 -0.0 13.0317 26.6225 -25.6756 3.70857 35.1216 -61.3372 1.30128 32.8049 -0.383063 28.1345 -0.120234 3.55606 -0.318185 15.318 8.673 0.0 0.0 0.0 30.9084 20.4541 0.395217 -48.8645 -1.12472 7.19132 26.4286 15.2374 -3.53521 -13.4084 0.0 0.0 -0.0 0.0 -0.0 -6.61326 23.9524 15.7803 -71.0389 3.50217 -9.62077 39.6291 -26.2597 5.17438 5.49452 -0.0 -0.0 0.0 0.0 0.0 
978.112 638.49 -577.995 167.615 -68.5818 157.952 -2.52591 0.917945 6.2787 -2.50414 0.517373 6.32413 -2.42107 -1.09168 6.25094 -2.47554 -0.0928331 6.3445 -14.4547 5.21067 1.28999 -14.5172 9.17489 2.90411 -0.0 0.0 -0.0 -7.27224 24.2841 -7.08626 4.38371 -41.974 74.9121 0.511891 -14.2291 0.0638918 -31.5407 -2.09968 3.38933 -0.850064 15.0172 0.871417 -0.0 0.0 -0.0 12.4311 26.9367 -24.2567 2.20217 34.257 -61.9163 1.1423 29.503 -0.300784 27.0688 -0.14761 3.42268 -0.126342 14.898 7.19611 0.0 0.0 0.0 28.6695 18.2277 2.82679 -49.8526 -1.20936 7.31776 29.5529 16.6076 -3.90411 -13.535 0.0 0.0 -0.0 0.0 -0.0 -3.22241 25.0932 14.2593 -75.644 4.10358 -10.0005 38.9455 -25.6159 5.08536 7.45385 -0.0 -0.0 0.0 0.0 0.0 
